<svg width="14" height="20" viewBox="0 0 14 20" fill="none" xmlns="http://www.w3.org/2000/svg">
<path d="M9.33333 0H4.66667V1.55556H9.33333V0ZM6.22222 10.1111H7.77778V5.44444H6.22222V10.1111ZM12.4678 4.97L13.5722 3.86556C13.2378 3.46889 12.8722 3.09556 12.4756 2.76889L11.3711 3.87333C10.1656 2.90889 8.64889 2.33333 7 2.33333C3.13444 2.33333 0 5.46778 0 9.33333C0 13.1989 3.12667 16.3333 7 16.3333C10.8733 16.3333 14 13.1989 14 9.33333C14 7.68444 13.4244 6.16778 12.4678 4.97ZM7 14.7778C3.99 14.7778 1.55556 12.3433 1.55556 9.33333C1.55556 6.32333 3.99 3.88889 7 3.88889C10.01 3.88889 12.4444 6.32333 12.4444 9.33333C12.4444 12.3433 10.01 14.7778 7 14.7778Z" fill="#DC7700"/>
</svg>
